<svg id="Layer_1" data-name="Layer 1" xmlns="http://www.w3.org/2000/svg" viewBox="0 0 425.46 227.52"><defs><style>.cls-1{fill:#a90d0d;}.cls-2{fill:#fff2d9;}</style></defs><title>logo_color</title><path class="cls-1" d="M72.89,227.52q-30.76,0-51.83-24.94T0,130Q0,94.78,11.36,65.82A107.75,107.75,0,0,1,47,18.43,88.14,88.14,0,0,1,101.71,0q30.48,0,44.34,14.83T159.9,48.77q0,19.13-9.69,30.63T125,90.9a42.74,42.74,0,0,1-12.2-2.22Q119.17,82,124,70a64.59,64.59,0,0,0,4.85-24.25q0-12.19-6.52-20.93t-20.64-8.73q-21.34,0-38.11,17.6T38.38,76.9a167.44,167.44,0,0,0-8.45,52.8q0,38.24,14.69,57.22t38,19q15.53,0,31.88-9.42c10.56-6.09,25.72-15.17,25.72-28.34,0-3,.22-3,1-3,2.57,0,5.86,5.25,7.92,6.67a7.45,7.45,0,0,1,3.08,3.33,3.33,3.33,0,0,1,.08,2.48q-15.4,28.71-38.64,39.92Q93.12,227.52,72.89,227.52Z"/><path class="cls-1" d="M149.18,176.15c-3.33,0-5.83-2.34-7.42-3.72s-2.38-3.73-2.38-7.06a84.79,84.79,0,0,1,1.56-11.68,82.51,82.51,0,0,0,1.56-12.92c0-3.44-1.19-5.15-3.59-5.15a6.68,6.68,0,0,0-4.37,2.18,24.17,24.17,0,0,0-4.41,5.9,38.3,38.3,0,0,0-3.48,9.41,44.88,44.88,0,0,0-1.4,10.77,89.55,89.55,0,0,0,.46,9.45c-1.35.11-2.16.16-2.42.16q-6.8,0-6.79-6.64a100.06,100.06,0,0,1,1.68-12,92.07,92.07,0,0,0,1.68-14.41q0-4.8-3.59-4.8-4.45,0-9.06,8.59t-4.61,20.84a78.37,78.37,0,0,0,.47,8.28c-1.36.11-2.16.16-2.42.16q-6.8,0-6.8-6.64,0-.85,1.61-11.63a124.21,124.21,0,0,0,1.6-17.07,47.07,47.07,0,0,0-1.33-11.52,11.86,11.86,0,0,1,6.52,5.16,17.12,17.12,0,0,1,1.83,8.28,46.9,46.9,0,0,1-.54,6.32,36.29,36.29,0,0,1,7.34-13q4.68-5.16,8.59-5.16,8.75,0,8.74,13.51a32.28,32.28,0,0,1,6.68-9.87c2.53-2.43,4.88-3.64,7.07-3.64,3.17,0,5.41,1,6.71,2.86a13.48,13.48,0,0,1,2,7.73,86,86,0,0,1-1.53,13.7,85.87,85.87,0,0,0-1.52,12.85c0,2.68,3.6,11.74,2.6,10.74"/><path class="cls-1" d="M150.29,178.22a2.07,2.07,0,0,1-1.11-.33v.26c-3.92,0-6.78-2.51-8.49-4l-.24-.21c-2-1.76-3.07-4.65-3.07-8.57a85,85,0,0,1,1.59-12,80.9,80.9,0,0,0,1.53-12.57c0-3.15-1-3.15-1.59-3.15a5.06,5.06,0,0,0-3,1.64,22.44,22.44,0,0,0-4,5.41,36.84,36.84,0,0,0-3.28,8.92,43.42,43.42,0,0,0-1.34,10.29,88.39,88.39,0,0,0,.45,9.24l.22,2-2,.16c-1.87.14-2.34.16-2.58.16-5.67,0-8.79-3.07-8.79-8.64a99.08,99.08,0,0,1,1.71-12.37,91.26,91.26,0,0,0,1.65-14.06c0-2.8-.92-2.8-1.59-2.8-2.1,0-4.69,2.67-7.3,7.53-2.9,5.4-4.37,12.1-4.37,19.9a74.61,74.61,0,0,0,.46,8.07l.22,2-2.06.16c-1.86.14-2.34.16-2.57.16-5.67,0-8.8-3.07-8.8-8.64,0-.33,0-1,1.63-11.93a123.07,123.07,0,0,0,1.58-16.77,45,45,0,0,0-1.27-11l-1-3.75,3.6,1.39a13.76,13.76,0,0,1,7.56,6.06,17.15,17.15,0,0,1,1.87,5.92,33.42,33.42,0,0,1,3.53-4.67c3.55-3.91,6.84-5.81,10.07-5.81,3.92,0,8.44,1.73,10.09,9a28.88,28.88,0,0,1,3.95-4.77c2.89-2.78,5.74-4.19,8.45-4.19,3.86,0,6.67,1.26,8.36,3.72a15.5,15.5,0,0,1,2.31,8.87,88.84,88.84,0,0,1-1.56,14,84,84,0,0,0-1.49,12.51,38.87,38.87,0,0,0,1.7,6.52c1.22,3.9,1.59,5.08.08,6A2.08,2.08,0,0,1,150.29,178.22Zm-1.11-3.65v2.58l2.41-2.42a1.9,1.9,0,0,0-2.16-.3A2,2,0,0,0,149.18,174.57Zm-10.27-40.95c1.68,0,5.59.69,5.59,7.15A83.58,83.58,0,0,1,142.91,154c-1.26,7.12-1.53,10.09-1.53,11.33,0,2.71.57,4.58,1.69,5.55l.25.22a12.14,12.14,0,0,0,4.4,2.8c-.09-.28-.18-.55-.26-.81-1.1-3.52-1.88-6.13-1.88-7.72a86.6,86.6,0,0,1,1.55-13.19,85.26,85.26,0,0,0,1.5-13.36,11.63,11.63,0,0,0-1.61-6.61c-.91-1.33-2.57-2-5.06-2-1.65,0-3.56,1-5.69,3.08a21.65,21.65,0,0,0-1.7,1.84A7.45,7.45,0,0,1,138.91,133.62Zm-22.64,0c1.68,0,5.59.66,5.59,6.8a93,93,0,0,1-1.71,14.75c-1.36,7.79-1.65,10.65-1.65,11.68,0,3.34,1.34,4.64,4.79,4.64h.24c-.19-2.39-.28-4.94-.28-7.6a47.36,47.36,0,0,1,1.46-11.25q.67-2.73,1.5-5v-5.8c0-11.51-4.9-11.51-6.74-11.51s-4.44,1.56-7.11,4.5l0,0A7.39,7.39,0,0,1,116.27,133.62Zm-17.75-3.18a52.92,52.92,0,0,1,.54,7.71,125.14,125.14,0,0,1-1.63,17.36c-1.39,9.37-1.57,11.07-1.58,11.36,0,3.32,1.35,4.62,4.8,4.62h.23c-.18-2.23-.28-4.39-.28-6.43a48.52,48.52,0,0,1,3.25-18.39l-2.29-.55a44.45,44.45,0,0,0,.52-6,15.14,15.14,0,0,0-1.59-7.32A7.5,7.5,0,0,0,98.52,130.44Z"/><path class="cls-2" d="M166.83,169.7a16.26,16.26,0,0,1-1.76-7.85,99.25,99.25,0,0,1,1.25-13.19,99.86,99.86,0,0,0,1.25-13.36,44,44,0,0,0-.47-7.34,22.37,22.37,0,0,1,2.27-.15q3.51,0,5.07,1.56t1.56,5.15q0,1.17-1.91,12.3a114.92,114.92,0,0,0-2,18.35q0,7.23.9,9.33A10.66,10.66,0,0,1,166.83,169.7Zm7.38-49.62c-4.38,0-6.56-1.49-6.56-4.46a12.47,12.47,0,0,1,1.17-4.37,16.65,16.65,0,0,1,3-.31q6.56,0,6.56,4.45a12.26,12.26,0,0,1-1.18,4.37A16.76,16.76,0,0,1,174.21,120.08Z"/><path class="cls-2" d="M176.74,177.93l-4.37-1.54a12.68,12.68,0,0,1-7.3-5.74h0a18.22,18.22,0,0,1-2-8.8,101.59,101.59,0,0,1,1.27-13.48,97.37,97.37,0,0,0,1.23-13.07,41.9,41.9,0,0,0-.44-7l-.38-2.11,2.13-.24a24,24,0,0,1,2.49-.16c2.88,0,5.06.72,6.48,2.14s2.15,3.64,2.15,6.57c0,.44,0,1.34-1.94,12.64a114.13,114.13,0,0,0-1.92,18c0,6.13.49,8,.72,8.51Zm-8.15-9.18a7,7,0,0,0,1.72,2.06c-.12-1.42-.19-3.25-.17-5.65a117.62,117.62,0,0,1,2-18.68c1.68-9.77,1.88-11.62,1.88-12,0-1.81-.33-3.1-1-3.74s-1.91-1-3.66-1h0c.14,1.51.21,3.33.21,5.49a102.1,102.1,0,0,1-1.27,13.64,96.75,96.75,0,0,0-1.23,12.91,14.37,14.37,0,0,0,1.52,6.9Zm5.62-46.67c-7.45,0-8.56-4-8.56-6.46a14.15,14.15,0,0,1,1.32-5.14l.42-1,1.07-.2a19,19,0,0,1,3.33-.34c7.44,0,8.56,4,8.56,6.45a14.15,14.15,0,0,1-1.33,5.14l-.42,1-1.07.19A18.77,18.77,0,0,1,174.21,122.08Zm-4-9a8.24,8.24,0,0,0-.61,2.57c0,.8,0,2.46,4.56,2.46a12.77,12.77,0,0,0,1.52-.11,8.06,8.06,0,0,0,.62-2.58c0-.8,0-2.45-4.56-2.45A12.78,12.78,0,0,0,170.26,113.05Z"/><path class="cls-2" d="M201.77,136a24,24,0,0,0-4.57,8.9,40.62,40.62,0,0,0-1.52,11.28,20,20,0,0,0,2,9.69c1.35,2.44,3.16,3.67,5.43,3.67a12.62,12.62,0,0,0,6.68-2,17.44,17.44,0,0,0,5.54-5.63c1.93.26,2.89,1,2.89,2.11a20.34,20.34,0,0,1-5.27,6.4,18.15,18.15,0,0,1-5.9,3.32,19.06,19.06,0,0,1-5.54.82,13,13,0,0,1-10.15-4.72q-4.14-4.72-4.14-13.71a31.63,31.63,0,0,1,6.17-19.6,19.53,19.53,0,0,1,16.4-8.2q5.61,0,8.51,2.93a9.43,9.43,0,0,1,2.89,6.8,10.4,10.4,0,0,1-2.15,6.6,6.71,6.71,0,0,1-5.51,2.73,8.48,8.48,0,0,1-3.59-.7,12,12,0,0,0,2.15-3.95,14.76,14.76,0,0,0,.9-5c0-3.59-1.49-5.38-4.45-5.38Q204.82,132.34,201.77,136Z"/><path class="cls-2" d="M201.54,176.5a15,15,0,0,1-11.66-5.4c-3.07-3.51-4.63-8.56-4.63-15a33.76,33.76,0,0,1,6.57-20.8,21.5,21.5,0,0,1,18-9c4.28,0,7.62,1.19,9.93,3.53a11.36,11.36,0,0,1,3.47,8.2,12.33,12.33,0,0,1-2.58,7.83,8.63,8.63,0,0,1-7.08,3.5,10.31,10.31,0,0,1-4.45-.9l-2.4-1.14,1.77-2a10.19,10.19,0,0,0,1.75-3.29,12.85,12.85,0,0,0,.79-4.29c0-3.38-1.42-3.38-2.45-3.38-1.9,0-3.62.95-5.27,2.91a22.21,22.21,0,0,0-4.17,8.17,38.65,38.65,0,0,0-1.45,10.73,18.19,18.19,0,0,0,1.78,8.72c1.31,2.36,2.73,2.64,3.68,2.64a10.53,10.53,0,0,0,5.62-1.73,15.52,15.52,0,0,0,4.91-5l.68-1.09,1.28.17c4.17.57,4.62,3,4.62,4.09v.51l-.24.44a22.4,22.4,0,0,1-5.79,7,20.4,20.4,0,0,1-6.56,3.67A21.29,21.29,0,0,1,201.54,176.5Zm8.28-46.23a17.46,17.46,0,0,0-14.8,7.41,29.81,29.81,0,0,0-5.77,18.39c0,5.47,1.22,9.63,3.64,12.39a11,11,0,0,0,8.65,4,17.24,17.24,0,0,0,5-.73,16.43,16.43,0,0,0,5.23-3,18,18,0,0,0,1.71-1.56,18.51,18.51,0,0,1-2.58,1.94,14.64,14.64,0,0,1-7.73,2.33c-2.09,0-5-.82-7.18-4.71a22,22,0,0,1-2.28-10.65,42.77,42.77,0,0,1,1.6-11.84,26.25,26.25,0,0,1,5-9.63h0c2.42-2.88,5.22-4.34,8.33-4.34,1.94,0,6.45.72,6.45,7.38a16.69,16.69,0,0,1-1,5.63,18.3,18.3,0,0,1-.81,2h.37a4.72,4.72,0,0,0,3.94-2,8.38,8.38,0,0,0,1.72-5.36,7.39,7.39,0,0,0-2.32-5.39C215.38,131.06,213,130.27,209.82,130.27Z"/><path class="cls-2" d="M248.12,134.33q5.34-6.06,10-6.06c3.13,0,5.34,1,6.64,2.86a13.48,13.48,0,0,1,1.95,7.73,86.91,86.91,0,0,1-1.52,13.7,84.54,84.54,0,0,0-1.52,12.85,12.75,12.75,0,0,0,1,5.85,8.35,8.35,0,0,0,3.44,3.17c-.68,0-1.64.07-2.89.07q-5,0-7.38-2.07c-1.59-1.37-2.38-3.73-2.38-7.06a84.79,84.79,0,0,1,1.56-11.68,82.51,82.51,0,0,0,1.56-12.92c0-3.44-1.2-5.15-3.59-5.15q-2.11,0-4.69,2.22a26.84,26.84,0,0,0-5,6,36.49,36.49,0,0,0-4,9.61,43,43,0,0,0-1.6,11.48,54.65,54.65,0,0,0,.47,8.39c-1.25.11-2,.16-2.11.16-2.45,0-4.25-.52-5.43-1.56s-1.75-2.67-1.75-4.88a108,108,0,0,1,1.4-12.77q4.14-29.06,4.14-44.12,0-6.8-.94-9.14a11.43,11.43,0,0,1,6.37,4.84q1.83,3.21,1.83,8.83,0,3.9-1.52,16.4t-2.07,18.11A38.25,38.25,0,0,1,248.12,134.33Z"/><path class="cls-2" d="M265.26,176.5c-3.81,0-6.74-.86-8.69-2.56s-3.07-4.65-3.07-8.57a85,85,0,0,1,1.59-12,80.9,80.9,0,0,0,1.53-12.57c0-3.15-1-3.15-1.59-3.15a5.91,5.91,0,0,0-3.38,1.73,24.58,24.58,0,0,0-4.57,5.57,34.17,34.17,0,0,0-3.75,9.07,41.54,41.54,0,0,0-1.53,10.95,53.12,53.12,0,0,0,.44,8.05l.37,2.16-2.17.18c-1.83.15-2.11.16-2.28.16-2.94,0-5.21-.7-6.75-2.07s-2.43-3.58-2.43-6.37A106.92,106.92,0,0,1,230.4,154c2.74-19.17,4.12-33.92,4.12-43.82,0-5.58-.5-7.66-.79-8.4l-1.66-4.14,4.2,1.52a13.41,13.41,0,0,1,7.41,5.73c1.42,2.47,2.1,5.68,2.1,9.82,0,2.7-.5,8.15-1.53,16.64q-.37,3-.69,5.67a36.74,36.74,0,0,1,3.06-4h0c4-4.52,7.77-6.73,11.53-6.73s6.6,1.26,8.29,3.72a15.5,15.5,0,0,1,2.3,8.87,88.59,88.59,0,0,1-1.55,14,84,84,0,0,0-1.49,12.51c0,2.89.41,4.25.76,4.88a6.45,6.45,0,0,0,2.65,2.38l5.9,3.24-6.71.51C267.56,176.48,266.54,176.5,265.26,176.5ZM255,133.62c1.68,0,5.59.69,5.59,7.15A83.58,83.58,0,0,1,259,154c-1.27,7.12-1.53,10.09-1.53,11.33,0,2.71.57,4.58,1.69,5.55a7.22,7.22,0,0,0,3.85,1.46,1.09,1.09,0,0,0-.08-.15c-.85-1.54-1.26-3.77-1.26-6.82a85.18,85.18,0,0,1,1.55-13.19,85,85,0,0,0,1.49-13.36,11.72,11.72,0,0,0-1.6-6.61c-.91-1.33-2.54-2-5-2s-5.38,1.81-8.53,5.38c-.2.22-.39.45-.58.68h0C251.15,134.5,253.11,133.62,255,133.62Zm-16.71-28.9c.14,1.5.2,3.3.2,5.44,0,10.09-1.4,25-4.16,44.4A106,106,0,0,0,233,167.05a4.39,4.39,0,0,0,1.08,3.38,6.17,6.17,0,0,0,4,1.06c-.15-1.73-.23-3.9-.23-6.55a45.28,45.28,0,0,1,1.67-12c.34-1.22.7-2.37,1.09-3.47L238.2,149c.37-3.77,1.05-9.71,2.08-18.17,1-8.21,1.5-13.64,1.5-16.15,0-3.38-.52-6-1.57-7.83A7.17,7.17,0,0,0,238.32,104.72Z"/><path class="cls-2" d="M290.48,142.76a37.62,37.62,0,0,0-3.48,8,28,28,0,0,0-1.21,7.85,11.56,11.56,0,0,0,1.68,6.37,5.38,5.38,0,0,0,4.81,2.61q4.37,0,8.2-4.8a34.47,34.47,0,0,0,5.89-11.64,43.81,43.81,0,0,0,2.07-12.65A80.19,80.19,0,0,0,308,129c1.25-.11,2-.16,2.34-.16q6.65,0,6.64,6.8c0,1-.62,5-1.87,12.06a102.3,102.3,0,0,0-1.88,16.95,25.15,25.15,0,0,0,2.43,11.28q-4.94-1-7.15-4.33c-1.48-2.22-2.23-5.41-2.23-9.57,0-.73.11-2.13.32-4.22a23.84,23.84,0,0,1-7.42,12q-5.31,4.53-10.43,4.53a10,10,0,0,1-8.23-3.87q-3.14-3.85-3.13-10.69a36.59,36.59,0,0,1,2.54-13.36,30.16,30.16,0,0,1,7.65-11.28A16.37,16.37,0,0,1,299,130.31a19.07,19.07,0,0,1,6,1.09,21.65,21.65,0,0,0-8.43,4.29A25.65,25.65,0,0,0,290.48,142.76Z"/><path class="cls-2" d="M319.23,178.69l-4-.82c-3.79-.79-6.62-2.53-8.4-5.18a15,15,0,0,1-2.22-6,24.12,24.12,0,0,1-4.15,4.58c-3.9,3.32-7.84,5-11.73,5a12,12,0,0,1-9.79-4.61c-2.37-2.93-3.57-6.95-3.57-11.95A38.56,38.56,0,0,1,278,145.63a32.25,32.25,0,0,1,8.15-12,18.39,18.39,0,0,1,12.8-5.29,21.32,21.32,0,0,1,6.65,1.19l.4.13c0-.13,0-.27-.05-.4l-.26-2.07,2.08-.18c1.74-.14,2.25-.16,2.5-.16,5.57,0,8.64,3.12,8.64,8.8,0,.77-.21,2.88-1.9,12.41a100.36,100.36,0,0,0-1.85,16.6,23.4,23.4,0,0,0,2.22,10.4Zm-13.15-21.17,2.48.47c-.25,2.51-.31,3.57-.31,4,0,3.74.64,6.58,1.89,8.45a7.12,7.12,0,0,0,2.07,2,29.5,29.5,0,0,1-1-7.85,104.24,104.24,0,0,1,1.91-17.3c1.66-9.39,1.84-11.32,1.84-11.71,0-3.45-1.3-4.8-4.64-4.8h-.14c0,.06,0,.12,0,.19l1.92.64-1.85.47q.18,2.84.18,6.41a46,46,0,0,1-2.15,13.23A41.6,41.6,0,0,1,306.08,157.52Zm-8.29-25.17a14.6,14.6,0,0,0-8.88,4.18,28.45,28.45,0,0,0-7.15,10.55,34.74,34.74,0,0,0-2.4,12.63c0,4.06.9,7.24,2.68,9.44a8.09,8.09,0,0,0,6.68,3.12c2.91,0,6-1.36,9.13-4.05.42-.36.82-.73,1.2-1.12a10.76,10.76,0,0,1-6.77,2.53,7.38,7.38,0,0,1-6.49-3.53,13.61,13.61,0,0,1-2-7.45,29.7,29.7,0,0,1,1.3-8.41,39.46,39.46,0,0,1,3.66-8.48h0a27.7,27.7,0,0,1,6.56-7.62A26.34,26.34,0,0,1,297.79,132.35Zm8.52.78-.81.21a19.78,19.78,0,0,0-7.66,3.9,23.81,23.81,0,0,0-5.63,6.52h0a35.83,35.83,0,0,0-3.29,7.61,25.73,25.73,0,0,0-1.13,7.28,9.55,9.55,0,0,0,1.37,5.28,3.37,3.37,0,0,0,3.12,1.7c2.29,0,4.46-1.32,6.63-4a32.73,32.73,0,0,0,5.55-11,42.21,42.21,0,0,0,2-12.07C306.44,136.56,306.4,134.75,306.31,133.13Z"/><path class="cls-2" d="M351.94,172.16a20.53,20.53,0,0,1-10,2.34q-5.67,0-9.88-5t-4.22-14.06A31.91,31.91,0,0,1,333.43,137a20.7,20.7,0,0,1,7.14-6.32,19.82,19.82,0,0,1,9.73-2.43q11.7,0,11.71,11.33a12.5,12.5,0,0,1-5.27,10.66,20.17,20.17,0,0,1-12.22,3.86,36.07,36.07,0,0,1-8.28-.86c-.05.52-.08,1.33-.08,2.42q0,13.83,8.2,13.83,7.72,0,12.57-7.66c1.93.26,2.89,1,2.89,2.11Q356.24,169.83,351.94,172.16Zm-3.13-39.82q-4.68,0-7.92,5.38a34.25,34.25,0,0,0-4.34,12.65h2.19a20,20,0,0,0,7.18-1.17,11.68,11.68,0,0,0,4.69-3,12.06,12.06,0,0,0,3.12-8.12,6.55,6.55,0,0,0-1.21-4.14A4.4,4.4,0,0,0,348.81,132.34Z"/><path class="cls-2" d="M342,176.5c-4.37,0-8.21-1.92-11.41-5.7s-4.69-8.85-4.69-15.35a34,34,0,0,1,5.9-19.56,22.86,22.86,0,0,1,7.83-6.95,22,22,0,0,1,10.69-2.67c9,0,13.71,4.61,13.71,13.33a14.44,14.44,0,0,1-6.09,12.27,22.18,22.18,0,0,1-13.4,4.25,42.3,42.3,0,0,1-6.36-.45h0c0,11.83,4.67,11.83,6.2,11.83,4.46,0,8-2.2,10.88-6.73l.69-1.08,1.27.17c4.17.57,4.62,3,4.62,4.09v.57l-.29.48c-2.57,4.18-5.48,7.18-8.64,8.91h0A22.58,22.58,0,0,1,342,176.5Zm3.95-45.73a17.18,17.18,0,0,0-4.39,1.68,18.78,18.78,0,0,0-6.47,5.72,30,30,0,0,0-5.19,17.28c0,5.53,1.27,9.82,3.75,12.77s5.16,4.28,8.35,4.28a18.52,18.52,0,0,0,9-2.1,13.86,13.86,0,0,0,2.77-2,15.14,15.14,0,0,1-9.39,3.12c-4.65,0-10.2-2.75-10.2-15.83,0-1.17,0-2,.09-2.62l.07-.69h-.09l.34-2.29a36.59,36.59,0,0,1,4.6-13.39Q342,132,345.93,130.77Zm-3.21,21.32q.88,0,1.8,0a18,18,0,0,0,11-3.48,10.5,10.5,0,0,0,4.45-9c0-6.45-3-9.33-9.71-9.33-.53,0-1.06,0-1.58.07a6.24,6.24,0,0,1,5.38,2.33,8.56,8.56,0,0,1,1.63,5.37,14,14,0,0,1-3.61,9.43,13.65,13.65,0,0,1-5.48,3.6A19.22,19.22,0,0,1,342.72,152.09Zm6.09-17.75c-2.39,0-4.42,1.44-6.21,4.41a31,31,0,0,0-3.66,9.62,18,18,0,0,0,6.27-1,9.7,9.7,0,0,0,3.89-2.5,10,10,0,0,0,2.63-6.8,4.74,4.74,0,0,0-.79-2.92A2.42,2.42,0,0,0,348.81,134.34Z"/><path class="cls-2" d="M371.54,167.63c-.06-.83-.08-2.17-.08-4s.87-9.75,2.61-23.7,2.62-23.53,2.62-28.74-.31-8.59-.94-10.15a11.21,11.21,0,0,1,6.17,4.84,15.58,15.58,0,0,1,1.8,7.73q0,4.53-2.27,23.43a268,268,0,0,0-2.26,30.46q0,2.49.31,7c-2.86-.21-4.89-.88-6.09-2C372.42,171.54,371.79,169.92,371.54,167.63Z"/><path class="cls-2" d="M381.65,176.67l-2.3-.17c-3.37-.25-5.76-1.09-7.32-2.58-1.35-1.28-2.16-3.26-2.48-6.06v-.1c-.06-.87-.08-2.23-.08-4.15s.86-9.79,2.63-24c1.72-13.81,2.6-23.39,2.6-28.49,0-6.46-.5-8.66-.79-9.41l-1.69-4.2,4.24,1.59a13.27,13.27,0,0,1,7.22,5.73,17.64,17.64,0,0,1,2.05,8.71c0,3.13-.75,10.87-2.28,23.67a265.69,265.69,0,0,0-2.25,30.22c0,1.6.1,3.92.31,6.89Zm-8.12-9.21a6.14,6.14,0,0,0,1.25,3.56,5.41,5.41,0,0,0,2.57,1.17c-.11-1.92-.16-3.5-.16-4.71a269.37,269.37,0,0,1,2.28-30.7c1.49-12.46,2.25-20.26,2.25-23.19a13.72,13.72,0,0,0-1.54-6.75,7.5,7.5,0,0,0-1.71-2c.13,1.56.22,3.62.22,6.37,0,5.33-.86,14.82-2.63,29-2.15,17.18-2.6,22.24-2.6,23.45C373.46,165.38,373.48,166.67,373.53,167.46Z"/><path class="cls-2" d="M410.62,132.1a7.36,7.36,0,0,0-4.69,1.64,5.41,5.41,0,0,0-2.07,4.49,8.63,8.63,0,0,0,1.92,5.35,21.39,21.39,0,0,0,4.64,4.45c1.83,1.3,3.67,2.63,5.55,4q6.55,4.85,6.56,10.39a10.94,10.94,0,0,1-4.45,9,18,18,0,0,1-11.37,3.47q-6.9,0-10.69-2.73t-3.79-6.44a8.46,8.46,0,0,1,1.87-5.82,5.92,5.92,0,0,1,7.19-1.48,8.06,8.06,0,0,0-1.72,5.15,7.19,7.19,0,0,0,1.83,5,6.53,6.53,0,0,0,5.08,2,9,9,0,0,0,5.51-1.68,5.12,5.12,0,0,0,2.26-4.26,7.86,7.86,0,0,0-1.33-4.53,12.89,12.89,0,0,0-3.32-3.35c-1.32-.94-2.77-2-4.33-3.13s-3-2.27-4.33-3.39a13.74,13.74,0,0,1-3.32-4.22,11.79,11.79,0,0,1-1.33-5.58,11.37,11.37,0,0,1,4.22-9.1,15.9,15.9,0,0,1,10.62-3.55q6.39,0,9.37,2.65a7.9,7.9,0,0,1,3,6,8.69,8.69,0,0,1-1.64,5.46,5.07,5.07,0,0,1-4.21,2.15,7.61,7.61,0,0,1-2.89-.7,8.43,8.43,0,0,0,2-5.39,5.42,5.42,0,0,0-1.76-4.38A6.59,6.59,0,0,0,410.62,132.1Z"/><path class="cls-2" d="M406.71,176.89c-5,0-9-1-11.86-3.11-3.07-2.21-4.62-4.92-4.62-8.06a10.41,10.41,0,0,1,2.38-7.15,7.91,7.91,0,0,1,9.57-1.94l2.2,1.09-1.52,1.93a6.1,6.1,0,0,0-1.29,3.92,5.2,5.2,0,0,0,1.32,3.66,4.56,4.56,0,0,0,3.59,1.37,6.92,6.92,0,0,0,4.31-1.29,3.09,3.09,0,0,0,1.46-2.65,5.86,5.86,0,0,0-1-3.4,11.23,11.23,0,0,0-2.82-2.85q-2-1.41-4.36-3.14c-1.6-1.17-3.09-2.34-4.44-3.48a16.18,16.18,0,0,1-3.81-4.82,13.9,13.9,0,0,1-1.55-6.51,13.34,13.34,0,0,1,4.93-10.63,17.92,17.92,0,0,1,11.91-4c4.75,0,8.35,1.06,10.7,3.16a9.84,9.84,0,0,1,3.63,7.47,10.73,10.73,0,0,1-2,6.68,7.1,7.1,0,0,1-5.8,2.93,9.23,9.23,0,0,1-3.68-.87l-2.43-1,1.67-2.06a6.41,6.41,0,0,0,1.58-4.12,3.5,3.5,0,0,0-1.05-2.85,4.57,4.57,0,0,0-3.08-1,5.35,5.35,0,0,0-3.44,1.21,3.44,3.44,0,0,0-1.32,2.92,6.63,6.63,0,0,0,1.51,4.13,19.3,19.3,0,0,0,4.21,4l5.56,4c4.91,3.63,7.39,7.66,7.39,12a12.9,12.9,0,0,1-5.22,10.6A20,20,0,0,1,406.71,176.89Zm-8.48-17.08a3.84,3.84,0,0,0-2.63,1.42,6.57,6.57,0,0,0-1.37,4.49c0,1.81,1,3.38,3,4.82,2.16,1.56,5.37,2.35,9.52,2.35a16.06,16.06,0,0,0,10.14-3,9,9,0,0,0,3.68-7.44c0-3-1.94-6-5.75-8.78-1.85-1.34-3.7-2.66-5.52-4a23.51,23.51,0,0,1-5.07-4.87,10.63,10.63,0,0,1-2.33-6.56,7.45,7.45,0,0,1,2.83-6.06,9.37,9.37,0,0,1,5.93-2.07,8.51,8.51,0,0,1,5.66,2,7.31,7.31,0,0,1,2.47,5.9,9.76,9.76,0,0,1-.88,4.08,3,3,0,0,0,2.36-1.35,6.77,6.77,0,0,0,1.23-4.25,5.93,5.93,0,0,0-2.3-4.49c-1.59-1.42-4.29-2.14-8-2.14a13.86,13.86,0,0,0-9.34,3.08,9.39,9.39,0,0,0-3.5,7.57,9.76,9.76,0,0,0,1.1,4.65,11.88,11.88,0,0,0,2.83,3.62c1.29,1.08,2.71,2.19,4.23,3.31s3,2.17,4.31,3.1a15.27,15.27,0,0,1,3.82,3.87,9.88,9.88,0,0,1,1.67,5.65,7.12,7.12,0,0,1-3.07,5.87,11,11,0,0,1-6.7,2.07,8.45,8.45,0,0,1-6.56-2.69,9.16,9.16,0,0,1-2.35-6.34A10.54,10.54,0,0,1,398.23,159.81Z"/><path class="cls-2" d="M189.82,49.18a37,37,0,0,0-3.47,8,27.52,27.52,0,0,0-1.21,7.84,11.56,11.56,0,0,0,1.68,6.37,5.38,5.38,0,0,0,4.8,2.61q4.37,0,8.2-4.8a34.52,34.52,0,0,0,5.89-11.63A43.92,43.92,0,0,0,207.78,45a78.12,78.12,0,0,0-.47-9.56c1.25-.11,2-.16,2.35-.16q6.63,0,6.64,6.8,0,1.49-1.88,12.06a102.21,102.21,0,0,0-1.87,16.95A25.15,25.15,0,0,0,215,82.33,10.79,10.79,0,0,1,207.82,78c-1.48-2.22-2.22-5.4-2.22-9.57,0-.73.1-2.13.31-4.22a23.84,23.84,0,0,1-7.42,12q-5.31,4.53-10.42,4.53a10.09,10.09,0,0,1-8.24-3.86Q176.7,73,176.7,66.13a36.59,36.59,0,0,1,2.54-13.36,30.24,30.24,0,0,1,7.65-11.28,16.37,16.37,0,0,1,11.44-4.76,19.13,19.13,0,0,1,6,1.09,21.69,21.69,0,0,0-8.44,4.29A25.65,25.65,0,0,0,189.82,49.18Z"/><path class="cls-2" d="M218.57,85.12l-4-.83a12.73,12.73,0,0,1-8.4-5.18,15.19,15.19,0,0,1-2.22-6,23.79,23.79,0,0,1-4.15,4.58c-3.9,3.33-7.84,5-11.72,5a12,12,0,0,1-9.8-4.61c-2.37-2.93-3.57-7-3.57-12a38.56,38.56,0,0,1,2.68-14.08,32.22,32.22,0,0,1,8.15-12,18.4,18.4,0,0,1,12.8-5.3A21.32,21.32,0,0,1,205,35.92l.4.13c0-.13,0-.27,0-.4l-.26-2.07,2.08-.17c1.74-.15,2.25-.17,2.51-.17,5.57,0,8.64,3.13,8.64,8.8,0,.77-.22,2.88-1.91,12.41a101.25,101.25,0,0,0-1.84,16.6,23.4,23.4,0,0,0,2.21,10.4ZM205.43,63.94l2.47.47c-.25,2.5-.3,3.56-.3,4,0,3.74.63,6.59,1.88,8.45a7.12,7.12,0,0,0,2.07,2,29.51,29.51,0,0,1-1-7.85,105.13,105.13,0,0,1,1.9-17.3c1.67-9.39,1.85-11.32,1.85-11.71,0-3.45-1.3-4.8-4.64-4.8h-.15c0,.06,0,.12,0,.19l1.92.64-1.84.47q.16,2.84.17,6.41a46,46,0,0,1-2.15,13.23A41.58,41.58,0,0,1,205.43,63.94Zm-8.3-25.16A14.48,14.48,0,0,0,188.26,43a28.29,28.29,0,0,0-7.15,10.55,34.55,34.55,0,0,0-2.41,12.63c0,4.06.9,7.24,2.68,9.44a8.11,8.11,0,0,0,6.69,3.12c2.9,0,6-1.36,9.12-4,.42-.36.82-.73,1.21-1.11a10.79,10.79,0,0,1-6.78,2.52,7.4,7.4,0,0,1-6.49-3.53,13.58,13.58,0,0,1-2-7.45,29.67,29.67,0,0,1,1.29-8.41,39.67,39.67,0,0,1,3.66-8.47,27.42,27.42,0,0,1,6.56-7.62A23.18,23.18,0,0,1,197.13,38.78Zm8.53.77-.82.21a19.78,19.78,0,0,0-7.66,3.9,23.6,23.6,0,0,0-5.62,6.52h0a34.84,34.84,0,0,0-3.29,7.61,25.84,25.84,0,0,0-1.13,7.28,9.69,9.69,0,0,0,1.36,5.29,3.38,3.38,0,0,0,3.12,1.69c2.29,0,4.46-1.32,6.63-4a32.58,32.58,0,0,0,5.55-11,42,42,0,0,0,2-12.08C205.78,43,205.74,41.17,205.66,39.55Z"/><path class="cls-2" d="M245.07,39.42q3.94-4.8,7.34-4.8a5.76,5.76,0,0,1,5.12,2.54,11.29,11.29,0,0,1,1.71,6.44,11.28,11.28,0,0,1-2,6.75,6.82,6.82,0,0,1-5.93,2.85,9.86,9.86,0,0,1-1.95-.15A13.57,13.57,0,0,0,252,45.24c0-1.88-.75-2.81-2.26-2.81-1.2,0-2.48.7-3.83,2.11a23.7,23.7,0,0,0-3.9,5.85,41.06,41.06,0,0,0-3.13,9.76,63.94,63.94,0,0,0-1.25,13q0,.78.39,6.63c-1.35.11-2.13.16-2.34.16q-6.87,0-6.87-6.72,0-1.56,1.64-12a114.09,114.09,0,0,0,1.64-16.67,46.16,46.16,0,0,0-1.33-11.44,11.86,11.86,0,0,1,6.44,5.11A15.64,15.64,0,0,1,239,45.9a49.4,49.4,0,0,1-.7,8.47Q241.13,44.23,245.07,39.42Z"/><path class="cls-2" d="M235.66,81.91c-5.72,0-8.87-3.1-8.87-8.72,0-.73.17-2.81,1.66-12.33a111.34,111.34,0,0,0,1.62-16.36,44.65,44.65,0,0,0-1.27-11l-1-3.77,3.62,1.41a13.91,13.91,0,0,1,7.46,6,16.7,16.7,0,0,1,1.8,5.2,25.44,25.44,0,0,1,2.8-4.25h0c3.05-3.72,6-5.53,8.88-5.53A7.78,7.78,0,0,1,259.18,36a13.27,13.27,0,0,1,2.06,7.57,13.28,13.28,0,0,1-2.4,7.91,8.84,8.84,0,0,1-7.56,3.69,11.15,11.15,0,0,1-2.39-.2l-2.9-.65,1.69-2.44a11.5,11.5,0,0,0,2.3-6.67,2.26,2.26,0,0,0-.1-.8h-.16a4.05,4.05,0,0,0-2.39,1.49,22,22,0,0,0-3.55,5.37,38.48,38.48,0,0,0-3,9.27,62.11,62.11,0,0,0-1.21,12.56c0,.27,0,1.48.39,6.5l.13,2-2,.15C236.2,81.9,235.84,81.91,235.66,81.91Zm-2.12-45a52.89,52.89,0,0,1,.53,7.59,116.61,116.61,0,0,1-1.66,17c-1.41,9-1.62,11.19-1.62,11.71,0,3.35,1.41,4.72,4.87,4.72h.22c-.24-3.6-.27-4.47-.27-4.78a65.71,65.71,0,0,1,1.3-13.37,54.27,54.27,0,0,1,1.34-5.29l-1.9-.43A48.48,48.48,0,0,0,237,45.9a13.73,13.73,0,0,0-1.59-6.76A7.6,7.6,0,0,0,233.54,36.91Zm16.18,3.52c2.06,0,4.26,1.26,4.26,4.81a14.45,14.45,0,0,1-1.25,5.82,4.47,4.47,0,0,0,2.86-1.87,9.33,9.33,0,0,0,1.65-5.59,9.39,9.39,0,0,0-1.37-5.32,3.82,3.82,0,0,0-3.46-1.66c-1.6,0-3.61,1.41-5.79,4.07h0c-.36.44-.72.92-1.06,1.43A6.62,6.62,0,0,1,249.72,40.43Z"/><path class="cls-2" d="M264.71,74.05c0-.83-.08-2.17-.08-4s.87-9.75,2.62-23.7,2.61-23.53,2.61-28.74-.31-8.59-.93-10.15a11.29,11.29,0,0,1,6.17,4.84A15.7,15.7,0,0,1,276.89,20q0,4.53-2.26,23.42a268.36,268.36,0,0,0-2.27,30.46c0,1.66.11,4,.32,7q-4.31-.32-6.1-2C265.6,78,265,76.34,264.71,74.05Z"/><path class="cls-2" d="M274.83,83.09l-2.3-.17c-3.37-.25-5.77-1.09-7.33-2.58-1.35-1.28-2.16-3.26-2.48-6.06v-.1c0-.88-.08-2.24-.08-4.15s.86-9.79,2.63-24c1.73-13.8,2.6-23.39,2.6-28.49,0-6.46-.49-8.66-.79-9.4L265.39,4l4.24,1.59a13.21,13.21,0,0,1,7.21,5.74A17.61,17.61,0,0,1,278.89,20c0,3.12-.74,10.86-2.28,23.66a268,268,0,0,0-2.25,30.22c0,1.61.11,3.93.31,6.89Zm-8.13-9.21A6.11,6.11,0,0,0,268,77.44a5.36,5.36,0,0,0,2.57,1.17c-.11-1.91-.17-3.49-.17-4.71a271.71,271.71,0,0,1,2.28-30.7c1.5-12.46,2.25-20.26,2.25-23.18a13.76,13.76,0,0,0-1.54-6.76,7.33,7.33,0,0,0-1.71-2c.14,1.56.22,3.62.22,6.37,0,5.27-.88,15-2.63,29-2.15,17.19-2.6,22.24-2.6,23.45C266.63,71.79,266.66,73.09,266.7,73.88Z"/></svg>