<svg width="48" height="48" fill="none" xmlns="http://www.w3.org/2000/svg"><path d="M24 18.285a5.715 5.715 0 10.004 11.43A5.715 5.715 0 0024 18.285zm13.362-4.393a5.786 5.786 0 00-3.258-3.258c-2.25-.888-7.608-.689-10.104-.689-2.496 0-7.848-.207-10.105.689a5.786 5.786 0 00-3.258 3.258c-.887 2.25-.689 7.613-.689 10.107 0 2.494-.198 7.85.693 10.108a5.786 5.786 0 003.259 3.258c2.25.888 7.607.689 10.104.689 2.498 0 7.847.207 10.104-.689a5.785 5.785 0 003.258-3.258c.895-2.25.689-7.613.689-10.107 0-2.494.206-7.85-.689-10.107h-.004zM24 32.786A8.787 8.787 0 1132.786 24 8.776 8.776 0 0124 32.786zm9.148-15.89a2.051 2.051 0 112.05-2.05 2.046 2.046 0 01-2.046 2.055l-.004-.005zM42.858 0H5.142A5.143 5.143 0 000 5.143v37.714A5.143 5.143 0 005.143 48h37.714A5.143 5.143 0 0048 42.857V5.143A5.143 5.143 0 0042.857 0zm-1.835 31.071c-.138 2.747-.765 5.18-2.77 7.179-2.004 2-4.435 2.639-7.178 2.77-2.83.16-11.314.16-14.143 0-2.746-.139-5.17-.766-7.179-2.77-2.008-2.004-2.639-4.438-2.77-7.179-.16-2.83-.16-11.315 0-14.142.139-2.746.758-5.18 2.77-7.179 2.012-2 4.443-2.631 7.179-2.762 2.83-.16 11.313-.16 14.143 0 2.746.138 5.178.766 7.178 2.77 2 2.003 2.64 4.437 2.77 7.183.16 2.82.16 11.298 0 14.13z" fill="#FFF2D9"/></svg>