<svg width="48" height="48" fill="none" xmlns="http://www.w3.org/2000/svg"><path d="M42.857 0H5.143A5.144 5.144 0 000 5.143v37.714A5.144 5.144 0 005.143 48h37.714A5.144 5.144 0 0048 42.857V5.143A5.144 5.144 0 0042.857 0zm-5.24 17.014c.022.3.022.611.022.911 0 9.29-7.071 19.993-19.993 19.993a19.901 19.901 0 01-10.789-3.15c.568.064 1.114.086 1.693.086 3.29 0 6.31-1.115 8.721-3a7.036 7.036 0 01-6.567-4.875c1.082.16 2.057.16 3.171-.129a7.028 7.028 0 01-5.625-6.9v-.086a7.023 7.023 0 003.171.89 7.013 7.013 0 01-3.128-5.85 6.94 6.94 0 01.953-3.547 19.952 19.952 0 0014.486 7.35c-.996-4.768 2.572-8.636 6.857-8.636 2.025 0 3.847.847 5.132 2.218a13.77 13.77 0 004.458-1.693 7.009 7.009 0 01-3.086 3.868c1.414-.15 2.786-.546 4.05-1.093a14.791 14.791 0 01-3.525 3.643z" fill="#FFF2D9"/></svg>